<svg id="Capa_1" data-name="Capa 1" xmlns="http://www.w3.org/2000/svg" viewBox="0 0 981.55 981.55"><defs><style>.cls-1{fill:#dc94ff;}.cls-2{fill:#fff;fill-rule:evenodd;}</style></defs><title>BUTTON</title><circle class="cls-1" cx="490.77" cy="490.77" r="490.77"/><g id="g3023"><path id="path3025" class="cls-2" d="M309.88,418.72C337.56,480.12,329.1,543.81,291,561s-91.44-18.64-119.11-80-19.23-125.08,18.88-142.27S282.2,357.34,309.88,418.72Z" transform="translate(-7.45 -12)"/><path id="path3027" class="cls-2" d="M686.58,418.72c-27.69,61.4-19.23,125.09,18.88,142.28s91.44-18.64,119.12-80,19.22-125.08-18.89-142.27S714.26,357.34,686.58,418.72Z" transform="translate(-7.45 -12)"/><path id="path3029" class="cls-2" d="M471.86,295.64c14.19,65.83-7.44,126.33-48.31,135.14s-85.49-37.42-99.68-103.24,7.44-126.33,48.31-135.13,85.49,37.41,99.68,103.23Z" transform="translate(-7.45 -12)"/><path id="path3031" class="cls-2" d="M523.58,295.7C509.4,361.52,531,422,571.88,430.83s85.49-37.41,99.68-103.23-7.44-126.33-48.31-135.14-85.49,37.41-99.67,103.24Z" transform="translate(-7.45 -12)"/><path id="path3033" class="cls-2" d="M420.71,515.69c-10,17.22-56.19,74.25-88.16,93.7S261,657.33,267.62,722.74s73.75,93.43,117.92,91S513,803.08,572.47,811.32s134.51,2,152.08-60.64-21.73-102.54-52.4-125.18-81.89-90.34-97.67-121.42S478.39,416.11,420.71,515.69Z" transform="translate(-7.45 -12)"/></g></svg>